<svg width="755" height="347" viewBox="0 0 755 347" fill="none" xmlns="http://www.w3.org/2000/svg">
<path fill-rule="evenodd" clip-rule="evenodd" d="M649.491 1.36808C633.533 3.85308 620.699 9.20808 607.975 18.6891C587.183 34.1821 574.805 55.7361 571.59 82.0501C568.785 105.007 576.131 130.941 590.504 148.821C614.76 178.997 654.565 191.239 690.677 179.629C720.493 170.044 743.009 146.461 751.663 115.754C754.873 104.365 755.408 86.8121 752.912 74.8081C749.085 56.4061 741.324 41.4961 728.797 28.4781C713.275 12.3471 694.337 3.19408 671.668 0.86808C659.769 -0.35292 660.668 -0.37292 649.491 1.36808ZM672.15 21.8971C679.249 24.5531 684.923 30.6331 684.485 35.1161C684.066 39.4141 680.947 40.7881 671.563 40.8061C660.623 40.8271 654.282 42.2651 644.987 46.8331C635.563 51.4651 627.238 58.6331 621.544 67.0171C617.241 73.3531 615.456 77.5961 612.649 88.1561C610.832 94.9951 608.482 98.8211 606.099 98.8211C603.812 98.8211 598.43 93.4861 596.557 89.3621C594.04 83.8221 594.093 72.9211 596.678 64.5531C603.081 43.8221 626.44 23.8781 649.024 19.8601C656.01 18.6171 665.654 19.4661 672.15 21.8971Z" fill="#F9B833"/>
<path d="M456.368 298.944C453.125 298.944 451.504 295.147 451.504 287.552C451.504 283.541 451.717 280.128 452.144 277.312C452.571 274.411 452.997 271.595 453.424 268.864C453.851 266.048 454.064 262.848 454.064 259.264C454.064 257.045 453.893 255.125 453.552 253.504C453.211 251.883 452.485 251.072 451.376 251.072C450.779 251.072 450.267 251.328 449.84 251.84C449.499 252.267 449.157 252.736 448.816 253.248C448.475 253.931 448.219 254.272 448.048 254.272C447.877 254.272 447.792 254.059 447.792 253.632C447.792 252.693 448.091 251.627 448.688 250.432C449.371 249.237 450.267 248.64 451.376 248.64C452.827 248.64 453.936 249.408 454.704 250.944C455.472 252.48 455.984 254.016 456.24 255.552C456.496 257.856 456.624 259.989 456.624 261.952C456.624 265.365 456.411 268.651 455.984 271.808C455.557 274.88 455.344 278.464 455.344 282.56C455.344 286.656 455.728 289.771 456.496 291.904C457.264 293.952 458.16 294.976 459.184 294.976C459.952 294.976 460.805 294.421 461.744 293.312C462.683 292.203 463.579 290.88 464.432 289.344C466.053 286.528 467.419 283.328 468.528 279.744C469.637 276.075 470.661 272.661 471.6 269.504C471.856 268.48 472.453 267.968 473.392 267.968C474.672 267.968 475.611 268.608 476.208 269.888C476.464 270.4 476.635 271.509 476.72 273.216C476.805 274.837 476.848 276.971 476.848 279.616C476.848 280.981 476.891 282.475 476.976 284.096C477.147 285.717 477.445 287.083 477.872 288.192C478.299 289.301 478.939 289.856 479.792 289.856C480.901 289.856 481.968 288.448 482.992 285.632C483.931 282.816 484.656 279.232 485.168 274.88C485.765 270.443 486.533 266.304 487.472 262.464C488.155 259.477 489.093 256.917 490.288 254.784C491.568 252.651 493.275 251.584 495.408 251.584C496.517 251.584 497.541 251.883 498.48 252.48C499.504 252.992 500.315 253.547 500.912 254.144C501.509 254.741 501.851 255.211 501.936 255.552C502.107 255.808 502.192 256.064 502.192 256.32C502.192 256.917 502.064 257.216 501.808 257.216C501.467 257.216 501.083 257.003 500.656 256.576C500.144 256.064 499.205 255.808 497.84 255.808C496.133 255.808 494.683 256.704 493.488 258.496C492.293 260.288 491.355 262.123 490.672 264C489.733 266.731 488.923 269.717 488.24 272.96C487.557 276.203 487.003 279.232 486.576 282.048C486.149 284.779 485.723 286.827 485.296 288.192C484.784 290.069 484.144 291.392 483.376 292.16C482.693 292.928 481.925 293.312 481.072 293.312C479.707 293.312 478.299 292.501 476.848 290.88C475.397 289.259 474.117 287.339 473.008 285.12C471.984 282.816 471.344 280.811 471.088 279.104H470.832C470.491 281.152 469.808 283.328 468.784 285.632C467.76 287.936 466.523 290.112 465.072 292.16C463.707 294.123 462.256 295.744 460.72 297.024C459.184 298.304 457.733 298.944 456.368 298.944ZM508.095 297.664C505.023 297.664 502.335 295.872 500.031 292.288C497.812 288.619 496.703 282.859 496.703 275.008C496.703 269.888 497.343 265.792 498.623 262.72C499.903 259.563 501.482 257.259 503.359 255.808C505.236 254.357 507.028 253.632 508.735 253.632C510.442 253.632 511.892 254.229 513.087 255.424C514.282 256.533 514.879 258.155 514.879 260.288C514.879 262.336 514.282 264.512 513.087 266.816C511.892 269.035 510.442 271.083 508.735 272.96C507.114 274.752 505.492 275.947 503.871 276.544C503.53 276.715 503.103 276.8 502.591 276.8C502.25 276.8 502.079 276.672 502.079 276.416C502.079 275.733 502.762 274.965 504.127 274.112C505.834 272.917 507.455 271.125 508.991 268.736C510.527 266.261 511.295 264.085 511.295 262.208C511.295 261.099 511.039 260.245 510.527 259.648C510.015 258.965 509.418 258.624 508.735 258.624C507.455 258.624 506.047 259.648 504.511 261.696C503.06 263.659 501.994 267.072 501.311 271.936C501.14 273.301 500.97 274.624 500.799 275.904C500.714 277.099 500.671 278.293 500.671 279.488C500.671 284.267 501.396 288.021 502.847 290.752C504.298 293.397 506.218 294.72 508.607 294.72C510.655 294.72 512.959 293.525 515.519 291.136C518.079 288.661 520.596 284.821 523.071 279.616C523.668 278.251 524.351 277.568 525.119 277.568C525.631 277.568 525.887 277.909 525.887 278.592C525.887 279.189 525.716 279.829 525.375 280.512C523.156 285.973 520.468 290.197 517.311 293.184C514.154 296.171 511.082 297.664 508.095 297.664ZM526.558 294.976C525.022 294.976 523.913 294.336 523.23 293.056C522.547 291.691 522.206 290.112 522.206 288.32C522.206 286.016 522.59 283.328 523.358 280.256C524.211 277.184 525.321 274.027 526.686 270.784C528.051 267.456 529.587 264.427 531.294 261.696C533.086 258.88 534.963 256.619 536.926 254.912C538.889 253.12 540.809 252.224 542.686 252.224C544.393 252.224 545.843 252.992 547.038 254.528C548.318 255.979 548.958 257.643 548.958 259.52C548.958 260.629 548.787 261.568 548.446 262.336C548.105 263.019 547.721 263.36 547.294 263.36C546.953 263.36 546.654 263.104 546.398 262.592C545.545 260.629 544.606 259.221 543.582 258.368C542.643 257.515 541.662 257.088 540.638 257.088C538.931 257.088 537.225 258.069 535.518 260.032C533.897 261.909 532.574 264.085 531.55 266.56C530.697 268.437 529.886 270.699 529.118 273.344C528.435 275.904 527.838 278.464 527.326 281.024C526.899 283.499 526.686 285.547 526.686 287.168C526.686 290.069 527.369 291.52 528.734 291.52C530.441 291.52 532.617 289.643 535.262 285.888C537.225 283.157 538.974 280 540.51 276.416C542.131 272.832 543.497 269.717 544.606 267.072C545.033 266.219 545.502 265.664 546.014 265.408C546.526 265.152 546.995 265.024 547.422 265.024C548.446 265.024 549.086 265.451 549.342 266.304C549.683 267.157 549.854 267.883 549.854 268.48C549.854 270.699 549.641 272.704 549.214 274.496C548.787 276.203 548.574 278.293 548.574 280.768C548.574 282.56 548.702 284.224 548.958 285.76C549.299 287.211 549.854 287.936 550.622 287.936C551.561 287.936 552.755 286.741 554.206 284.352C554.547 283.669 555.059 283.328 555.742 283.328C556.51 283.328 556.894 283.712 556.894 284.48C556.894 285.589 556.126 286.784 554.59 288.064C553.054 289.259 551.518 289.856 549.982 289.856C547.934 289.856 546.483 289.003 545.63 287.296C544.179 284.48 543.454 281.963 543.454 279.744C543.454 277.44 543.411 275.861 543.326 275.008C542.899 276.032 542.089 277.653 540.894 279.872C539.699 282.005 538.291 284.267 536.67 286.656C535.049 288.96 533.342 290.923 531.55 292.544C529.758 294.165 528.094 294.976 526.558 294.976ZM566.839 316.48C565.986 316.48 565.09 315.925 564.151 314.816C563.298 313.792 562.487 312.341 561.719 310.464C560.439 307.392 559.543 304.149 559.031 300.736C558.519 297.408 558.263 294.037 558.263 290.624C558.263 286.869 558.519 283.2 559.031 279.616C559.543 276.032 560.098 272.789 560.695 269.888C561.122 267.84 561.634 265.664 562.231 263.36C562.828 261.056 563.383 259.221 563.895 257.856C563.383 257.941 562.572 258.24 561.463 258.752C560.354 259.264 559.202 259.776 558.007 260.288C556.898 260.8 555.916 261.056 555.063 261.056C553.783 261.056 553.143 260.331 553.143 258.88C553.143 258.112 553.399 257.429 553.911 256.832C554.508 256.235 555.234 255.765 556.087 255.424C557.794 254.656 559.671 254.101 561.719 253.76C563.767 253.333 565.132 252.907 565.815 252.48L569.143 244.032C569.484 243.179 570.082 241.813 570.935 239.936C571.874 237.973 572.94 235.883 574.135 233.664C575.415 231.445 576.652 229.44 577.847 227.648C578.786 226.283 579.682 225.216 580.535 224.448C581.388 223.595 582.327 223.168 583.351 223.168C584.887 223.168 585.655 223.765 585.655 224.96C585.655 225.643 585.356 226.667 584.759 228.032C584.247 229.397 583.266 231.189 581.815 233.408C580.194 235.968 578.53 238.528 576.823 241.088C575.202 243.563 573.794 246.165 572.599 248.896C572.514 249.237 572.3 249.792 571.959 250.56C571.703 251.243 571.49 251.669 571.319 251.84L573.879 251.456C574.562 251.371 575.33 251.328 576.183 251.328C577.036 251.243 577.975 251.2 578.999 251.2C580.45 251.2 581.815 251.285 583.095 251.456C584.46 251.541 585.57 251.755 586.423 252.096C586.85 252.267 587.234 252.48 587.575 252.736C588.002 252.907 588.215 253.077 588.215 253.248C588.215 253.589 587.106 253.76 584.887 253.76C583.607 253.76 581.772 253.973 579.383 254.4C577.079 254.827 574.434 255.509 571.447 256.448C569.996 256.875 569.015 257.472 568.503 258.24C567.991 259.008 567.308 260.843 566.455 263.744C565.175 268.352 564.151 272.789 563.383 277.056C562.615 281.237 562.018 285.504 561.591 289.856C561.506 290.709 561.42 291.605 561.335 292.544C561.335 293.483 561.335 294.507 561.335 295.616C561.335 298.517 561.591 301.547 562.103 304.704C562.7 307.861 563.554 310.592 564.663 312.896C564.919 313.408 565.175 313.877 565.431 314.304C565.772 314.731 566.156 315.029 566.583 315.2C567.18 315.456 567.479 315.755 567.479 316.096C567.479 316.352 567.266 316.48 566.839 316.48ZM591.667 318.4C589.704 318.4 588.211 317.589 587.187 315.968C586.248 314.347 585.779 312.469 585.779 310.336C585.779 307.776 586.248 304.832 587.187 301.504C588.211 298.261 589.448 294.933 590.899 291.52C592.35 288.021 593.843 284.651 595.379 281.408C597 278.165 598.408 275.264 599.603 272.704C600.883 270.144 601.736 268.181 602.163 266.816C602.675 265.28 602.931 264.128 602.931 263.36C602.931 262.507 602.632 262.08 602.035 262.08C601.352 262.08 600.328 262.635 598.963 263.744C597.683 264.768 596.403 265.92 595.123 267.2C593.928 268.48 593.075 269.419 592.563 270.016C589.832 273.088 587.358 276.501 585.139 280.256C583.006 284.011 581.683 287.211 581.171 289.856C581.086 290.283 580.915 291.051 580.659 292.16C580.488 293.269 580.104 293.781 579.507 293.696C578.654 293.525 578.056 293.013 577.715 292.16C577.459 291.221 577.288 290.368 577.203 289.6C577.203 289.173 577.16 288.747 577.075 288.32C577.075 287.808 577.075 287.296 577.075 286.784C577.075 282.603 577.544 277.867 578.483 272.576C579.422 267.285 580.616 261.867 582.067 256.32C583.603 250.773 585.224 245.611 586.931 240.832C588.638 236.053 590.259 232.085 591.795 228.928C592.563 227.392 593.416 225.941 594.355 224.576C595.294 223.125 596.232 222.4 597.171 222.4C597.768 222.4 598.28 222.699 598.707 223.296C599.219 223.893 599.475 224.405 599.475 224.832C599.475 225.173 598.878 226.539 597.683 228.928C596.574 231.232 595.123 234.304 593.331 238.144C591.539 241.899 589.704 246.208 587.827 251.072C586.035 255.936 584.414 261.141 582.963 266.688C581.512 272.235 580.531 277.867 580.019 283.584C580.019 283.669 579.976 284.096 579.891 284.864C579.806 285.632 579.72 286.4 579.635 287.168C579.635 287.936 579.635 288.32 579.635 288.32V288.192H579.763C579.934 287.168 580.232 286.187 580.659 285.248C581.171 284.309 581.683 283.413 582.195 282.56C584.755 277.44 588.04 272.533 592.051 267.84C594.014 265.621 596.062 263.701 598.195 262.08C600.328 260.373 602.547 259.52 604.851 259.52C605.79 259.52 606.6 259.776 607.283 260.288C607.966 260.8 608.307 261.781 608.307 263.232C608.307 265.109 607.667 267.328 606.387 269.888C605.192 272.363 603.699 274.965 601.907 277.696C600.2 280.341 598.622 282.859 597.171 285.248C595.208 288.576 593.416 292.117 591.795 295.872C590.259 299.541 589.491 303.381 589.491 307.392C589.491 308.587 589.576 309.867 589.747 311.232C590.003 312.597 590.387 313.749 590.899 314.688C591.496 315.712 592.307 316.224 593.331 316.224C594.014 316.224 594.654 316.011 595.251 315.584C595.934 315.243 596.488 314.901 596.915 314.56C597.683 313.792 598.195 313.408 598.451 313.408C598.707 313.408 598.835 313.536 598.835 313.792C598.835 314.304 598.622 314.773 598.195 315.2C597.768 315.712 597.342 316.096 596.915 316.352C596.318 316.864 595.507 317.333 594.483 317.76C593.544 318.187 592.606 318.4 591.667 318.4ZM618.595 297.664C615.523 297.664 612.835 295.872 610.531 292.288C608.312 288.619 607.203 282.859 607.203 275.008C607.203 269.888 607.843 265.792 609.123 262.72C610.403 259.563 611.982 257.259 613.859 255.808C615.736 254.357 617.528 253.632 619.235 253.632C620.942 253.632 622.392 254.229 623.587 255.424C624.782 256.533 625.379 258.155 625.379 260.288C625.379 262.336 624.782 264.512 623.587 266.816C622.392 269.035 620.942 271.083 619.235 272.96C617.614 274.752 615.992 275.947 614.371 276.544C614.03 276.715 613.603 276.8 613.091 276.8C612.75 276.8 612.579 276.672 612.579 276.416C612.579 275.733 613.262 274.965 614.627 274.112C616.334 272.917 617.955 271.125 619.491 268.736C621.027 266.261 621.795 264.085 621.795 262.208C621.795 261.099 621.539 260.245 621.027 259.648C620.515 258.965 619.918 258.624 619.235 258.624C617.955 258.624 616.547 259.648 615.011 261.696C613.56 263.659 612.494 267.072 611.811 271.936C611.64 273.301 611.47 274.624 611.299 275.904C611.214 277.099 611.171 278.293 611.171 279.488C611.171 284.267 611.896 288.021 613.347 290.752C614.798 293.397 616.718 294.72 619.107 294.72C621.155 294.72 623.459 293.525 626.019 291.136C628.579 288.661 631.096 284.821 633.571 279.616C634.168 278.251 634.851 277.568 635.619 277.568C636.131 277.568 636.387 277.909 636.387 278.592C636.387 279.189 636.216 279.829 635.875 280.512C633.656 285.973 630.968 290.197 627.811 293.184C624.654 296.171 621.582 297.664 618.595 297.664ZM649.602 302.4C646.871 302.4 644.781 301.12 643.33 298.56C641.879 296.085 641.154 293.355 641.154 290.368C641.154 287.552 641.623 284.608 642.562 281.536C643.501 278.464 644.653 275.435 646.018 272.448C647.469 269.461 648.962 266.731 650.498 264.256C648.962 264.853 647.511 265.152 646.146 265.152C645.463 265.152 644.866 265.067 644.354 264.896C643.842 264.725 643.415 264.597 643.074 264.512C642.647 265.536 641.879 267.243 640.77 269.632C639.746 272.021 638.637 274.539 637.442 277.184C636.333 279.744 635.351 281.92 634.498 283.712C633.133 286.613 631.938 288.064 630.914 288.064C630.402 288.064 630.146 287.723 630.146 287.04C630.146 286.528 630.359 285.845 630.786 284.992C632.749 281.323 634.583 277.696 636.29 274.112C638.082 270.528 639.703 267.072 641.154 263.744C640.983 263.317 640.813 262.763 640.642 262.08C640.471 261.312 640.386 260.501 640.386 259.648C640.386 258.709 640.471 257.728 640.642 256.704C640.898 255.595 641.239 254.528 641.666 253.504C641.922 252.907 642.391 252.053 643.074 250.944C643.757 249.749 644.525 248.683 645.378 247.744C646.231 246.72 647.042 246.208 647.81 246.208C649.261 246.208 649.986 246.976 649.986 248.512C649.986 249.963 649.517 251.627 648.578 253.504C647.725 255.381 646.829 257.131 645.89 258.752C644.951 260.288 644.482 261.44 644.482 262.208C644.482 262.891 644.823 263.232 645.506 263.232C646.445 263.232 647.597 262.763 648.962 261.824C650.413 260.8 651.565 259.861 652.418 259.008C652.845 258.581 653.527 257.941 654.466 257.088C655.405 256.149 656.301 255.68 657.154 255.68C658.007 255.68 658.562 255.936 658.818 256.448C659.159 256.96 659.33 257.557 659.33 258.24C659.33 259.008 658.989 259.989 658.306 261.184C657.623 262.293 656.813 263.403 655.874 264.512C655.021 265.621 654.295 266.56 653.698 267.328C652.503 269.12 651.138 271.381 649.602 274.112C648.066 276.843 646.743 279.787 645.634 282.944C644.525 286.016 643.97 288.96 643.97 291.776C643.97 293.653 644.439 295.616 645.378 297.664C646.317 299.712 647.597 300.736 649.218 300.736C650.669 300.736 652.205 299.968 653.826 298.432C655.533 296.896 657.111 295.061 658.562 292.928C660.098 290.795 661.421 288.747 662.53 286.784C663.725 284.821 664.535 283.456 664.962 282.688C665.133 282.261 665.431 281.749 665.858 281.152C666.285 280.469 666.797 280.128 667.394 280.128C667.906 280.128 668.162 280.384 668.162 280.896C668.162 281.323 668.034 281.835 667.778 282.432C667.607 282.944 667.437 283.413 667.266 283.84C666.498 285.632 665.559 287.509 664.45 289.472C663.341 291.435 662.573 292.757 662.146 293.44C660.951 295.403 659.159 297.365 656.77 299.328C654.466 301.376 652.077 302.4 649.602 302.4Z" fill="#0066B3"/>
<path fill-rule="evenodd" clip-rule="evenodd" d="M0 155.5V219H14H28V191.5V164H53.5H79V191.5V219H93H107V155.5V92H93H79V116V140H53.5H28V116V92H14H0V155.5ZM395 114.533V137.067L391.336 133.403C385.26 127.327 377.988 124.562 368 124.532C357.814 124.501 351.593 126.422 344.517 131.783C333.715 139.967 328.171 151.963 327.316 169C326.178 191.676 334.776 209.334 350.794 217.219C357.103 220.325 358.045 220.5 368.479 220.5C380.907 220.5 385.124 219.026 392.25 212.191L396 208.594V213.797V219H408.5H421V155.5V92H408H395V114.533ZM538.243 155.25L538.5 218.5L551.25 218.78L564 219.06V155.53V92H550.993H537.985L538.243 155.25ZM155.482 125.456C148.046 126.807 140.202 130.277 135.347 134.362C131.566 137.543 127.271 145.45 126.415 150.807L125.744 155H138.761H151.777L152.404 151.66C153.58 145.391 159.156 142 168.285 142C179.419 142 184 145.211 184 153.016C184 160.17 180.097 162.16 161.319 164.582C137.238 167.687 127.994 172.725 124.386 184.711C119.961 199.415 126.678 213.841 140.288 218.864C152.185 223.255 171.224 220.967 180.858 213.988C185.226 210.824 185.249 210.833 186.436 216.25L187.038 219H200.126C212.182 219 213.161 218.862 212.538 217.25C210.572 212.163 210 203.042 210 176.806C210 145.22 209.504 141.28 204.81 135.586C196.996 126.105 175.829 121.758 155.482 125.456ZM269.312 126.074C264.834 127.493 261.586 129.44 257.562 133.118L252 138.201V132.6V127H239.5H227V173V219H239.934H252.868L253.184 188.75C253.491 159.32 253.564 158.37 255.855 153.717C259.145 147.036 263.943 144.658 273.09 145.175C280.418 145.589 282.816 146.965 285.852 152.498C287.264 155.07 287.545 160.044 287.813 187.25L288.127 219H301.063H314L313.992 187.75C313.985 154.94 313.251 146.42 309.849 139.629C305.602 131.153 299.777 126.985 289.535 125.091C281.298 123.568 276.478 123.803 269.312 126.074ZM468.773 125.555C448.705 130.42 435.176 146.827 433.339 168.527C432.035 183.933 437.396 199.356 447.317 208.738C457.299 218.18 466.914 221.434 482.872 220.773C496.549 220.207 502.876 217.861 510.989 210.349C516.478 205.268 523 194.946 523 191.34C523 190.305 520.618 190 512.548 190H502.095L497.201 194.894C493.247 198.848 491.246 200.025 486.776 201.026C472.397 204.244 461.542 197.196 459.398 183.25L458.744 179H491.872H525V172.21C525 140.04 498.777 118.282 468.773 125.555ZM609.5 124.698C595.165 126.599 584.08 134.114 581.141 143.922C579.592 149.093 579.702 158.36 581.36 162.282C584.791 170.4 592.279 174.486 613.073 179.587C632.973 184.469 637 186.729 637 193.019C637 204.211 616.965 208.054 606.504 198.869C604.369 196.995 602.818 194.547 602.42 192.424L601.777 189H589.525H577.273L578.22 194.212C581.374 211.564 596.437 221 620.982 221C646.418 221 661.288 210.867 662.743 192.545C663.424 183.967 661.705 178.652 656.594 173.542C651.434 168.381 645.227 165.881 627.734 161.917C613.018 158.582 607.368 156.074 605.869 152.209C604.584 148.896 606.329 145.152 610.03 143.279C613.575 141.485 625.497 141.668 629.522 143.577C632.532 145.006 636 149.997 636 152.901C636 153.639 639.947 154 648 154H660L659.978 150.75C659.949 146.397 656.613 139.26 652.693 135.161C644.565 126.661 626.921 122.387 609.5 124.698ZM383.79 145.894C385.83 146.935 388.27 148.639 389.212 149.68C397.329 158.657 398.055 182.724 390.55 194.094C386.563 200.134 377.162 203.198 369.195 201.052C359.624 198.475 353.993 189.347 353.202 175.128C352.388 160.482 356.349 150.502 364.732 146.077C369.758 143.424 378.781 143.337 383.79 145.894ZM488.4 145.394C492.162 146.966 496.166 151.834 497.862 156.899C500 163.286 500.885 163 479 163C456.479 163 457.298 163.344 460.908 155.395C463.069 150.638 466.254 147.326 470.5 145.423C474.445 143.655 484.2 143.639 488.4 145.394ZM183.978 182.25C183.954 190.049 181.935 196.03 178.207 199.345C171.136 205.633 155.171 205.365 150.631 198.883C148.266 195.508 148.533 188.863 151.168 185.514C154.065 181.83 158.003 180.325 169.633 178.453C174.996 177.59 180.086 176.474 180.942 175.973C183.729 174.341 184 174.902 183.978 182.25Z" fill="#0066B3"/>
</svg>
